<svg width="87" height="88" xmlns="http://www.w3.org/2000/svg" xmlns:xlink="http://www.w3.org/1999/xlink" xml:space="preserve" overflow="hidden"><g transform="translate(-1174 -25)"><path d="M5.5245 43.5145C5.5245 22.533 22.533 5.51 43.529 5.51 64.525 5.51 81.5335 22.533 81.5335 43.5145 81.5335 64.5105 64.5105 81.5335 43.529 81.5335 22.533 81.5335 5.5245 64.5105 5.5245 43.5145L5.5245 43.5145Z" fill="#FFFFFF" transform="matrix(1 0 0 1.01149 1174 25)"/><path d="M7.6995 43.5145C7.6995 23.7365 23.7365 7.685 43.529 7.685 63.3215 7.685 79.3585 23.722 79.3585 43.5145 79.3585 63.307 63.3215 79.344 43.529 79.344 23.7365 79.344 7.6995 63.307 7.6995 43.5145L7.6995 43.5145Z" fill="#0059A1" transform="matrix(1 0 0 1.01149 1174 25)"/><path d="M41.7165 16.385 42.0065 16.8635C43.268 16.82 44.167 16.762 45.3995 16.8925 45.8635 15.9645 46.8205 15.37 47.821 15.2395 50.5905 15.1235 52.925 16.4865 54.8825 18.299 56.0135 19.488 56.9415 21.054 56.2455 22.6925L56.0135 23.1275C56.6225 24.041 57.188 24.9545 57.594 25.955 57.9275 26.1435 58.4205 25.955 58.754 26.129 61.451 27.463 61.654 30.653 61.4945 33.4225 61.2045 35.2495 60.726 37.3085 58.841 38.193 58.4205 38.251 58.058 38.4105 57.594 38.3525 57.942 37.4245 58.3335 36.5255 58.522 35.525 60.2185 34.771 60.0445 32.625 59.972 30.972 59.7835 30.131 59.479 29.116 58.5655 28.8405 58.58 29.3335 58.7685 30.0875 58.406 30.537 58.203 30.7545 58 30.9285 57.71 30.943 57.2895 26.8105 55.3465 23.0985 51.7795 20.4885 52.084 20.155 52.519 20.0535 52.954 20.1695 53.302 20.358 53.6645 20.532 53.969 20.851 54.288 20.2855 53.882 19.662 53.5195 19.1835 52.316 17.8785 50.7935 16.9795 49.01 17.081 48.749 17.1535 48.5025 17.2695 48.285 17.4435 48.8215 17.6755 49.5175 17.8785 49.7495 18.531L49.7495 19.227C46.255 17.458 41.238 17.458 37.6855 19.227 37.613 18.879 37.613 18.4585 37.8595 18.1685 38.1785 17.7625 38.6425 17.6465 39.063 17.4435 38.4975 16.704 37.323 16.9795 36.5545 17.2115 35.264 17.748 33.611 18.7775 33.2485 20.271 33.263 20.4595 33.1905 20.6625 33.3355 20.793 33.7995 20.4885 34.2055 19.9955 34.829 20.039 35.0755 20.126 35.4525 20.1405 35.554 20.474 31.987 22.997 29.928 26.709 29.5365 30.8415 29.145 30.856 28.7825 30.4935 28.6955 30.1455 28.594 29.6525 28.681 29.1595 28.7825 28.6955 28.2315 28.6375 27.8255 29.261 27.579 29.696 26.912 31.1315 27.057 33.2485 27.695 34.655 27.927 34.9885 28.2895 35.2495 28.652 35.38L29.5365 38.0915C28.5795 38.193 27.724 37.8595 27.086 37.0765 25.1575 34.539 25.3895 30.2615 26.7235 27.521 27.3615 26.448 28.449 25.7375 29.7105 25.8245 30.1455 24.824 30.7255 23.838 31.407 22.9245 30.8415 22.1125 30.7545 20.938 31.146 20.039 32.5815 17.168 35.583 15.747 38.454 15.1525 39.7155 15.0945 40.919 15.3265 41.7165 16.385L41.7165 16.385ZM42.195 19.2125C41.615 21.924 38.6715 23.7075 36.2645 24.418 35.3655 24.6355 34.075 24.8675 33.205 24.3745 33.872 23.7945 34.4375 22.1125 35.6265 22.765 37.323 22.5185 39.353 21.6195 39.8315 19.749 40.542 19.4445 41.3975 19.3285 42.195 19.2125L42.195 19.2125ZM47.444 19.7345C47.763 21.3295 49.5175 22.214 50.837 22.7215 51.3155 22.8375 52.026 22.9535 52.4755 22.6925 53.1425 23.2145 53.621 23.8815 54.056 24.534 51.0255 25.2735 48.517 23.5625 46.342 21.5905 45.704 20.909 45.211 20.1695 45.1385 19.256 45.965 19.285 46.7335 19.459 47.444 19.7345L47.444 19.7345ZM32.8425 35.699C32.6105 36.2645 32.2335 36.8445 31.7115 37.265 31.987 38.1205 32.4655 38.86 32.973 39.614 36.163 39.0485 38.918 40.716 41.064 42.9925 41.557 43.5725 41.9195 44.2105 41.992 44.979 42.862 45.269 43.819 45.124 44.776 45.095L44.892 45.095C45.7765 42.2965 48.778 40.4695 51.3735 39.7735 52.2145 39.6285 53.1715 39.527 53.9545 39.8605 54.578 39.1065 55.0275 38.2945 55.4045 37.439 53.041 35.09 53.389 30.7255 54.6505 27.927 54.8535 27.5935 55.0565 27.231 55.4045 26.9845 55.796 27.637 55.97 28.42 56.173 29.174 54.9405 30.4645 54.926 32.8135 55.564 34.4085 55.709 34.6695 55.8975 34.9305 56.173 35.1045 56.3615 34.481 56.376 33.698 57.0865 33.408 57.2315 33.3645 57.4055 33.379 57.5795 33.379 57.2605 37.5115 55.158 41.1945 51.649 43.732 51.417 43.5145 51.301 43.123 51.417 42.775 51.504 42.3255 52.026 42.0065 52.345 41.6875 51.0835 41.0205 49.822 41.9775 48.749 42.572 48.111 43.0795 47.444 43.7175 47.299 44.5005 47.9225 44.3845 48.8795 43.964 49.4015 44.7035 49.4015 44.805 49.59 44.8485 49.5175 44.9935 45.994 46.777 40.9335 46.69 37.4245 44.9065 37.555 44.66 37.7725 44.341 38.0625 44.2685 38.5845 44.225 39.1355 44.2975 39.5995 44.5005 39.411 43.0215 37.787 42.166 36.5835 41.6005 36.0035 41.383 35.264 41.325 34.684 41.6005 35.0755 42.1225 35.641 42.253 35.641 42.9345 35.5685 43.181 35.641 43.471 35.438 43.674 34.249 42.9345 32.944 41.6585 32.103 40.455 30.624 38.309 29.6815 35.9165 29.5365 33.234 29.9425 33.2195 30.2615 33.3935 30.5515 33.669 30.798 34.0605 30.856 34.5245 30.9575 34.9595 31.233 34.945 31.407 34.5535 31.5665 34.3215 32.1175 32.741 32.364 30.4355 31.001 29.1595 31.146 28.3475 31.465 27.637 31.7695 26.8975 34.0025 29.0145 33.814 32.9585 32.8425 35.699L32.8425 35.699ZM33.089 43.3115C32.8135 44.7615 34.4375 45.8345 35.5105 46.5015 36.366 46.951 37.41 47.473 38.454 47.0235L38.889 46.7335C39.7735 46.9945 40.7015 47.1975 41.644 47.3425 41.412 48.227 40.455 48.7345 39.6575 48.952 36.6415 49.2565 34.191 47.6615 32.0015 45.6605 31.175 44.7035 30.5225 43.674 30.682 42.2965 30.798 41.8905 30.8995 41.47 31.204 41.1365 31.755 41.8905 32.4365 42.63 33.089 43.3115L33.089 43.3115ZM56.3615 43.5145C55.39 46.516 52.1855 48.2125 49.4305 48.923 48.169 49.155 46.719 49.1115 45.8055 48.198 45.5445 47.966 45.3125 47.705 45.2835 47.386 46.255 47.2265 47.212 47.0235 48.14 46.777 49.2275 47.705 50.7065 46.9365 51.765 46.487 52.693 45.907 53.8095 45.037 53.9835 43.906L53.9545 43.384C54.6795 42.717 55.2885 41.9775 55.883 41.2525 56.376 41.8325 56.4775 42.7025 56.3615 43.5145L56.3615 43.5145ZM25.3895 54.4765 25.3895 56.202C24.2585 54.9985 22.4605 54.52 20.9235 55.158 19.3575 55.8105 18.705 57.478 18.734 59.102 18.7775 60.3635 19.285 61.509 20.4015 62.2485 21.953 63.394 24.447 62.9155 25.9985 62.1325 25.9115 62.582 25.723 63.162 25.5345 63.626 22.8665 64.6845 19.517 64.612 17.3855 62.4515 16.1385 61.161 15.863 59.1745 16.385 57.4635 17.0665 55.3465 19.227 53.9545 21.373 53.8385 22.8375 53.737 24.157 54.0125 25.3895 54.4765L25.3895 54.4765ZM69.165 54.6505 69.165 56.666C68.324 55.622 67.1785 54.955 65.859 55.2595 65.4675 55.3465 65.134 55.6945 64.9455 56.0135 64.786 56.3035 64.7715 56.753 65.0325 56.956 66.6275 58.4785 70.557 59.1745 69.542 62.263 68.875 64.003 67.0045 64.641 65.2355 64.612 64.264 64.525 63.336 64.322 62.4805 63.9595L62.4515 61.799C63.4955 62.9155 64.8585 63.713 66.4535 63.365 66.874 63.2635 67.2945 62.93 67.5265 62.524 67.7005 62.1905 67.628 61.683 67.454 61.4365 65.9895 59.8415 62.7995 59.6095 62.8865 56.84 62.93 55.738 63.916 54.752 64.902 54.3895 66.2505 53.911 67.918 54.114 69.165 54.6505L69.165 54.6505ZM50.344 62.901C50.605 63.394 51.069 63.887 51.5475 64.2205 51.5475 64.2205 48.7635 64.2205 47.357 64.2205 48.082 63.51 47.6615 62.408 47.328 61.625 46.371 61.4945 45.211 61.567 44.138 61.567L43.732 60.523 46.806 60.523C46.3565 59.0295 45.646 57.5215 45.0805 55.999 44.109 58.145 43.268 60.4215 42.3835 62.611 42.1805 63.162 42.369 63.771 42.7025 64.206L39.3965 64.2205C40.5565 63.4085 40.977 62.1325 41.499 61.0015L44.0075 54.752C43.993 54.52 43.964 54.317 43.8045 54.143L46.9075 54.143 50.344 62.901 50.344 62.901Z" fill="#FFFFFF" transform="matrix(1 0 0 1.01149 1174 25)"/><path d="M33.524 53.8965C28.043 53.8965 27.6805 58.4785 27.6805 59.247 27.6805 60.2475 28.0865 64.438 33.524 64.438 38.9615 64.438 39.3675 60.262 39.3675 59.247 39.3675 58.4785 39.005 53.8965 33.524 53.8965L33.524 53.8965ZM33.524 63.3505C30.827 63.3505 30.4355 60.8275 30.4355 59.0585 30.4355 58.0725 30.8415 54.984 33.524 54.984 36.192 54.984 36.6125 58.0725 36.6125 59.0585 36.6125 60.8275 36.221 63.3505 33.524 63.3505L33.524 63.3505Z" fill="#FFFFFF" transform="matrix(1 0 0 1.01149 1174 25)"/><path d="M57.913 64.235C57.4345 63.5535 57.159 62.7995 57.246 61.9005L57.246 55.332C58.6235 55.187 59.943 55.2885 60.9435 56.173L60.581 54.1865 51.475 54.1865 51.127 56.173C52.113 55.2885 53.4325 55.187 54.81 55.332L54.81 61.9005C54.897 62.7995 54.607 63.5535 54.143 64.235L57.913 64.235 57.913 64.235Z" fill="#FFFFFF" transform="matrix(1 0 0 1.01149 1174 25)"/></g></svg>